<?xml version="1.0" encoding="UTF-8" standalone="no"?>
<!-- Created with Inkscape (http://www.inkscape.org/) -->

<svg
   version="1.1"
   id="svg1"
   width="663.04346"
   height="665.51086"
   viewBox="0 0 663.04346 665.51086"
   xmlns:xlink="http://www.w3.org/1999/xlink"
   xmlns="http://www.w3.org/2000/svg"
   xmlns:svg="http://www.w3.org/2000/svg">
  <defs
     id="defs1">
    <linearGradient
       id="linearGradient301">
      <stop
         style="stop-color:#c63f40;stop-opacity:1;"
         offset="0"
         id="stop301" />
      <stop
         style="stop-color:#c63f40;stop-opacity:0.32791328;"
         offset="1"
         id="stop302" />
    </linearGradient>
    <linearGradient
       id="linearGradient4">
      <stop
         style="stop-color:#000000;stop-opacity:1;"
         offset="0"
         id="stop4" />
      <stop
         style="stop-color:#000000;stop-opacity:0;"
         offset="1"
         id="stop5" />
    </linearGradient>
    <linearGradient
       xlink:href="#linearGradient4"
       id="linearGradient5"
       x1="413.50357"
       y1="284.49512"
       x2="792.61035"
       y2="549.94855"
       gradientUnits="userSpaceOnUse" />
    <linearGradient
       xlink:href="#linearGradient301"
       id="linearGradient302"
       x1="170.91544"
       y1="455.32388"
       x2="666.40228"
       y2="455.32388"
       gradientUnits="userSpaceOnUse" />
    <linearGradient
       xlink:href="#linearGradient4"
       id="linearGradient2"
       gradientUnits="userSpaceOnUse"
       x1="413.50357"
       y1="284.49512"
       x2="792.61035"
       y2="549.94855" />
  </defs>
  <g
     id="g1"
     transform="translate(-170.91545,-177.19576)">
    <path
       style="display:none;fill:#ee4335;fill-opacity:1;stroke:#000000;stroke-width:0;stroke-linecap:butt;stroke-linejoin:miter;stroke-dasharray:none;stroke-opacity:1"
       d="m 372.16131,446.72876 c -0.40938,-5.56587 25.3377,-18.16888 60.50359,-38.87522 71.30805,-41.98754 190.48886,-111.84829 279.87799,-164.92242 94.57489,-56.15314 116.00559,-70.04884 120.85336,-64.66289 5.31418,5.90415 -27.81738,74.45922 -65.43133,158.76565 -46.26466,103.69581 -103.28665,221.09118 -132.00841,280.41776 -9.67308,19.98034 -19.39145,39.98646 -23.20368,39.79469 -14.61096,-0.73498 -33.94579,-159.75258 -62.6246,-183.58916 -16.77997,-13.94679 -179.17931,-14.75753 -177.96692,-26.92841 z"
       id="path3" />
    <path
       style="display:none;fill:#fe5b38;fill-opacity:1;stroke:url(#linearGradient2);stroke-width:0;stroke-linecap:butt;stroke-linejoin:miter;stroke-dasharray:none"
       d="m 372.16131,446.72876 c -0.40938,-5.56587 25.3377,-18.16888 60.50359,-38.87522 C 503.97295,365.866 623.15376,296.00525 712.54289,242.93112 807.11778,186.77798 817.20047,180.1324 823.30913,186.77924 724.81031,290.25952 639.07124,381.08027 550.12823,473.65717 533.34826,459.71038 370.94892,458.89964 372.16131,446.72876 Z"
       id="path7" />
    <path
       style="display:none;fill:#d330e9;fill-rule:evenodd;stroke-linejoin:bevel"
       d="m 504.27344,178.72461 c -101.52217,-2.12563 -201.52622,43.11405 -266.53711,127.83789 -94.5613,123.23468 -90.18809,303.60128 22.25198,425.43228 l 23.59177,-40.70181 C 195.2214,589.64793 190.65398,440.19727 272.64258,333.34766 354.63118,226.49804 500.17023,192.22927 621.2207,251.26953 l 45.18159,-24.01136 C 630.17103,195.62181 550.41988,179.69081 504.27344,178.72461 Z"
       id="path10" />
    <path
       style="display:inline;fill:#6962ca;fill-opacity:1;stroke:#000000;stroke-width:0;stroke-linecap:butt;stroke-linejoin:miter;stroke-dasharray:none;stroke-opacity:1"
       d="m 592.68096,556.93723 c -23.73867,18.82328 -87.54458,67.05819 -154.31869,118.49992 -64.10588,49.38616 -130.90157,101.77388 -169.7697,131.76616 -20.25879,15.63252 -32.02865,25.35582 -35.84268,22.38378 -6.48627,-5.05435 6.1992,-18.96065 23.52014,-43.15899 26.977,-37.68841 69.42241,-97.16353 111.9709,-154.94799 66.55605,-90.38876 131.03531,-180.25939 134.66507,-185.09908 7.48124,-9.975 101.41245,0.83125 101.41245,0.83125 l 4.9875,87.28121 z"
       id="path8" />
    <path
       style="display:inline;fill:#423aad;fill-opacity:1;stroke:#000000;stroke-width:0;stroke-linecap:butt;stroke-linejoin:miter;stroke-dasharray:none;stroke-opacity:1"
       d="m 592.68096,556.93723 c -23.73867,18.82328 -87.54458,67.05819 -154.31869,118.49992 -64.10588,49.38616 -130.90157,101.77388 -169.7697,131.76616 -20.25879,15.63252 -29.81735,23.39022 -31.91148,21.89238 10.75223,-13.02966 234.77492,-266.91954 333.39619,-378.86057 9.34153,-10.60319 34.24117,-3.02284 34.24117,-3.02284 l 4.9875,87.28121 z"
       id="path9" />
    <path
       style="display:inline;fill:#6962ca;fill-opacity:1;fill-rule:evenodd;stroke-linejoin:bevel"
       d="m 800.77462,364.96768 -31.88598,43.86313 c 39.14472,108.13331 17.24868,233.17483 -72.53512,315.44653 -89.78381,82.2717 -221.23715,95.96688 -323.22131,42.09923 l -34.2602,30.08107 c 121.44731,74.96862 281.04693,56.73082 387.20807,-39.74084 104.00263,-94.51016 136.48209,-246.40225 74.69454,-391.74912 z"
       id="path293" />
    <path
       style="display:inline;fill:#c63f40;fill-opacity:1;stroke:#000000;stroke-width:0;stroke-linecap:butt;stroke-linejoin:miter;stroke-dasharray:none;stroke-opacity:1"
       d="m 372.16131,446.72876 c -0.40938,-5.56587 25.3377,-18.16888 60.50359,-38.87522 71.30805,-41.98754 190.48886,-111.84829 279.87799,-164.92242 94.57489,-56.15314 116.00559,-70.04884 120.85336,-64.66289 5.31418,5.90415 -27.81738,74.45922 -65.43133,158.76565 -46.26466,103.69581 -103.28665,221.09118 -132.00841,280.41776 -9.67308,19.98034 -19.39145,39.98646 -23.20368,39.79469 -14.61096,-0.73498 -33.94579,-159.75258 -62.6246,-183.58916 -16.77997,-13.94679 -179.17931,-14.75753 -177.96692,-26.92841 z"
       id="path299" />
    <path
       style="display:inline;fill:#d37374;fill-opacity:1;stroke:url(#linearGradient5);stroke-width:0;stroke-linecap:butt;stroke-linejoin:miter;stroke-dasharray:none"
       d="m 372.16131,446.72876 c -0.40938,-5.56587 25.3377,-18.16888 60.50359,-38.87522 C 503.97295,365.866 623.15376,296.00525 712.54289,242.93112 807.11778,186.77798 817.20047,180.1324 823.30913,186.77924 724.81031,290.25952 639.07124,381.08027 550.12823,473.65717 533.34826,459.71038 370.94892,458.89964 372.16131,446.72876 Z"
       id="path300" />
    <path
       style="display:inline;fill:url(#linearGradient302);fill-opacity:1;fill-rule:evenodd;stroke-linejoin:bevel"
       d="m 504.27344,178.72461 c -101.52217,-2.12563 -201.52622,43.11405 -266.53711,127.83789 -94.5613,123.23468 -90.18809,303.60128 22.25198,425.43228 l 23.59177,-40.70181 C 195.2214,589.64793 190.65398,440.19727 272.64258,333.34766 354.63118,226.49804 500.17023,192.22927 621.2207,251.26953 l 45.18159,-24.01136 C 630.17103,195.62181 550.41988,179.69081 504.27344,178.72461 Z"
       id="path301" />
  </g>
</svg>
